<svg xmlns="http://www.w3.org/2000/svg" width="31.617" height="31.617" viewBox="0 0 31.617 31.617">
  <g id="Attachment" transform="translate(0 0)">
    <path id="Attachment-2" data-name="Attachment" d="M-2.223,10.685l-9.4-9.145a5.507,5.507,0,0,0-7.638,0,5.156,5.156,0,0,0,0,7.432l9.4,9.145.849-.826-.848.825a3.06,3.06,0,0,0,4.18-.06,2.865,2.865,0,0,0,0-4.129l-9.335-9.084a.612.612,0,0,0-.849,0,.573.573,0,0,0,0,.826l9.335,9.084a1.719,1.719,0,0,1,0,2.477,1.836,1.836,0,0,1-2.546,0l-9.335-9.084a4.01,4.01,0,0,1,0-5.781,4.283,4.283,0,0,1,5.941,0l9.335,9.084a6.3,6.3,0,0,1,0,9.084,6.731,6.731,0,0,1-9.335,0L-20.107,13.1a.612.612,0,0,0-.849,0,.573.573,0,0,0,0,.826l7.638,7.432a7.954,7.954,0,0,0,11.032,0A7.447,7.447,0,0,0-2.223,10.685Z" transform="translate(31.617 14.942) rotate(45)" fill="#8f8d9a"/>
  </g>
</svg>
