<svg xmlns="http://www.w3.org/2000/svg" xmlns:xlink="http://www.w3.org/1999/xlink" width="54" height="54" viewBox="0 0 54 54">
  <defs>
    <linearGradient id="linear-gradient" x1="0.737" y1="-0.165" x2="0.179" y2="1.178" gradientUnits="objectBoundingBox">
      <stop offset="0" stop-color="#00e3e6"/>
      <stop offset="1" stop-color="#00c2c8"/>
    </linearGradient>
  </defs>
  <g id="avatar" transform="translate(0 -1)">
    <g id="thumbnail" transform="translate(0 1)">
      <circle id="Ellipse_1" data-name="Ellipse 1" cx="27" cy="27" r="27" fill="#0a0a0b"/>
      <g id="Group_6" data-name="Group 6" transform="translate(14.58 18.9)">
        <path id="أكد" d="M22.04,15.318V5.084h1.772V15.318Zm-13.263,0H8.554v0a2.827,2.827,0,0,1-2.907-2.034l-.066.017c-.248,1.457-.845,2.02-2.252,2.02H2.087A1.88,1.88,0,0,1,0,13.182V12.023H1.689v1.126H3.941c.96,0,1.308-.182,1.308-.712a3.657,3.657,0,0,0-.281-1.043L3.478,7.154l1.838-.662,1.673,4.753c.546,1.523.944,1.9,1.755,1.9h6.374c.828,0,1.192-.215,1.192-.762,0-.414-.2-.662-.911-1.126L12.766,9.522l.762-2.186v.083L15.4,8.711c1.805,1.176,2.418,2.037,2.418,3.411,0,2.136-.977,3.2-3.179,3.2ZM21.046,3.759V2.517h.662l.017-.066a1.388,1.388,0,0,1-.315-.878A1.611,1.611,0,0,1,23.133,0a2.183,2.183,0,0,1,1.606.729l-.745,1.01a1.166,1.166,0,0,0-.861-.4c-.381,0-.646.215-.646.48,0,.4.381.6,1.159.6h1.176V3.759Z" transform="translate(0 0.702)" fill="#fff"/>
        <path id="Combined_Shape" data-name="Combined Shape" d="M3.865,12.446l-.076-.05a1.132,1.132,0,0,1-.3-.282,1.137,1.137,0,0,1-.183-.186L.239,7.979A1.134,1.134,0,0,1,.434,6.391l.072-.057a1.134,1.134,0,0,1,1.6.2l2.257,2.9L10.119.519A1.134,1.134,0,0,1,11.691.185l.076.05A1.134,1.134,0,0,1,12.1,1.8L5.437,12.112a1.134,1.134,0,0,1-1.572.334Z" transform="translate(7.38 0)" fill="url(#linear-gradient)"/>
      </g>
    </g>
  </g>
</svg>
