<?xml version="1.0" encoding="UTF-8"?>
<svg width="27px" height="26px" viewBox="0 0 27 26" version="1.1" xmlns="http://www.w3.org/2000/svg" xmlns:xlink="http://www.w3.org/1999/xlink">
    <g id="Page-1" stroke="none" stroke-width="1" fill="none" fill-rule="evenodd">
        <path d="M16.2780508,0 L16.4099802,0.00784315127 C16.5835387,0.0290046589 16.7493007,0.0925234451 16.8925314,0.192745685 L16.9954996,0.274705922 L18.8940508,1.987 L21.4268001,2.40163611 C21.7102477,2.44827011 21.9592607,2.60633332 22.1228849,2.83636427 L22.1876331,2.9392401 L22.2410342,3.05023802 L23.1830508,5.378 L25.2880629,6.82905057 C25.5272205,6.99106868 25.6858781,7.24205223 25.7336193,7.51981076 L25.7472003,7.6403081 L25.7466677,7.76299613 L25.5880508,10.3 L26.8506419,12.4710034 C26.9914653,12.7151209 27.0268185,13.001724 26.9560348,13.2676247 L26.9118066,13.3985573 L26.8498999,13.5242842 L25.5880508,15.693 L25.7468547,18.2341842 C25.7628003,18.5203345 25.6618376,18.7968548 25.4735097,19.0037743 L25.3875349,19.088018 L25.2913792,19.1626901 L23.1830508,20.615 L22.2393605,22.9478477 C22.1292848,23.2127781 21.9188558,23.4188759 21.6595615,23.5254199 L21.5455938,23.5648677 L21.4265432,23.5914129 L18.8940508,24.006 L16.993354,25.7212248 C16.7858157,25.906244 16.5176747,26.0010868 16.2472661,25.9930239 L16.1121429,25.980358 L15.9782622,25.9501876 L13.4950508,25.229 L11.0141095,25.9568631 L10.9151106,25.9807864 L10.8143899,25.995187 L10.7126292,26 C10.4924149,26 10.2786427,25.9323829 10.0991906,25.8072752 L9.99586081,25.7253929 L8.09605079,24.013 L5.56390375,23.5932791 C5.28133436,23.5464633 5.03307543,23.3888921 4.86950849,23.1592983 L4.80474048,23.0566043 L4.75122424,22.9457688 L3.80805079,20.617 L1.70123105,19.1649324 C1.4651181,19.0024918 1.30814238,18.7534626 1.2597694,18.4762083 L1.24577317,18.3558271 L1.24559067,18.2330107 L1.40305079,15.695 L0.142675196,13.5268282 C4.33393154e-07,13.2821852 -0.0356053143,12.9941861 0.0355732899,12.7280945 L0.0800648657,12.5971765 L0.142358515,12.4717226 L1.40205079,10.303 L1.24161628,7.76340576 C1.22347385,7.47510542 1.32495362,7.19605914 1.51406692,6.98933091 L1.60038753,6.90534459 L1.69687921,6.8313167 L3.80405079,5.378 L4.75048661,3.04237929 C4.86282741,2.7781338 5.07528613,2.57372752 5.33357551,2.46993434 L5.44691865,2.43173042 L5.56492407,2.40655971 L8.09805079,1.992 L9.99545585,0.275979385 C10.1246085,0.159306306 10.279228,0.0767962029 10.4468952,0.0339159299 L10.5748979,0.00927173798 L10.7066292,0 C10.7764398,0 10.8459762,0.00661928571 10.9138314,0.0197044242 L11.0141772,0.0441635925 L13.4950508,0.771 L15.9745468,0.0449132002 L16.0747247,0.0201179584 L16.1766454,0.00506938757 L16.2780508,0 Z M16.0010508,2.236 L13.7918533,2.88422902 C13.6347027,2.92978921 13.4697867,2.93890124 13.3088311,2.91136146 L13.1890402,2.88383123 L10.9850508,2.237 L9.29316151,3.76060552 C9.1715031,3.87012769 9.02678226,3.94993556 8.8701212,3.99459282 L8.7505604,4.02141007 L6.50205079,4.39 L5.65854929,6.46196105 C5.59620473,6.6146966 5.49914474,6.75013664 5.37632647,6.85750063 L5.27952305,6.93259092 L3.40305079,8.226 L3.54476912,10.489689 C3.5544194,10.6540054 3.52553673,10.8177172 3.4605477,10.9690193 L3.40507389,11.0799847 L2.29005079,13 L3.40670106,14.9221059 C3.48927468,15.0652058 3.53672672,15.2252035 3.54595852,15.3893288 L3.54566766,15.5129971 L3.40505079,17.774 L5.27865379,19.0658177 C5.4151248,19.1595246 5.52711352,19.2837106 5.60594785,19.4273059 L5.65872164,19.5384686 L6.50105079,21.609 L8.7523959,21.9794071 C8.91405557,22.0055318 9.06699567,22.0683482 9.20013902,22.1627308 L9.29611157,22.2393563 L10.9890508,23.763 L13.1931414,23.1173352 C13.257661,23.0978597 13.3238127,23.0845863 13.3920978,23.0776466 L13.4961883,23.0720037 C13.565269,23.072081 13.6340947,23.0788917 13.7005335,23.0919467 L13.7981352,23.1161513 L16.0060508,23.763 L17.6987456,22.2397179 C17.8210081,22.1294423 17.9667773,22.0494574 18.1228513,22.0056181 L18.2416326,21.9796075 L20.4930508,21.609 L21.3359062,19.5375637 C21.3981655,19.38549 21.4946368,19.2504709 21.6177018,19.1422825 L21.7148677,19.0663246 L23.5900508,17.773 L23.4506928,15.5135992 C23.43984,15.3474779 23.4688624,15.1817906 23.5341396,15.0308427 L23.5898387,14.9206189 L24.7000508,12.999 L23.585106,11.0798494 C23.5019053,10.9363899 23.4542012,10.7757823 23.4451092,10.6117024 L23.4455786,10.4882051 L23.5850508,8.226 L21.7109222,6.93302885 C21.5764278,6.83986796 21.4656918,6.71727771 21.386211,6.57391799 L21.3325779,6.46263924 L20.4880508,4.39 L18.2374375,4.02053081 C18.0751354,3.99415885 17.921701,3.93069978 17.7893624,3.8362759 L17.6942549,3.75974775 L16.0010508,2.236 Z M12.3190508,15.842 L18.466787,6.45462399 L20.2623807,7.58868314 L12.9208769,18.8000034 L12.4596889,18.8000034 L6.80835002,13.7822227 L8.24308153,12.2206746 L12.3190508,15.842 Z" id="icn_varify_tab" fill="currentcolor" fill-rule="nonzero"></path>
    </g>
</svg>