<svg id="Logo" xmlns="http://www.w3.org/2000/svg" xmlns:xlink="http://www.w3.org/1999/xlink" width="70" height="45.178" viewBox="0 0 70 45.178">
  <defs>
    <linearGradient id="linear-gradient" x1="0.737" y1="-0.165" x2="0.179" y2="1.178" gradientUnits="objectBoundingBox">
      <stop offset="0" stop-color="#00e3e6"/>
      <stop offset="1" stop-color="#00c2c8"/>
    </linearGradient>
  </defs>
  <g id="Group_6" data-name="Group 6" transform="translate(0 0)">
    <path id="أكد" d="M62.154,43.2V14.337h5V43.2Zm-37.4,0h-.63V43.19c-4.238-.119-6.282-1.5-8.2-5.736l-.187.047c-.7,4.11-2.382,5.7-6.351,5.7h-3.5C2.148,43.2,0,41.283,0,37.174V33.9H4.764V37.08h6.351c2.709,0,3.689-.514,3.689-2.008a10.313,10.313,0,0,0-.794-2.942l-4.2-11.955,5.183-1.868,4.717,13.4c1.541,4.3,2.662,5.37,4.95,5.37H42.634c2.335,0,3.362-.607,3.362-2.148,0-1.167-.561-1.868-2.568-3.176L36,26.853l2.149-6.165v.234l5.277,3.642c5.09,3.316,6.818,5.744,6.818,9.62,0,6.024-2.755,9.013-8.966,9.013Zm34.6-32.6V7.1H61.22l.047-.187a3.914,3.914,0,0,1-.888-2.475A4.544,4.544,0,0,1,65.237,0a6.157,6.157,0,0,1,4.53,2.055L67.665,4.9a3.288,3.288,0,0,0-2.428-1.121c-1.075,0-1.821.607-1.821,1.354,0,1.121,1.074,1.681,3.269,1.681H70V10.6Z" transform="translate(0 1.98)" fill="#1c2636"/>
    <path id="Combined_Shape" data-name="Combined Shape" d="M10.9,35.1l-.214-.14a3.191,3.191,0,0,1-.839-.8,3.207,3.207,0,0,1-.515-.526L.673,22.5a3.2,3.2,0,0,1,.55-4.478l.2-.16a3.2,3.2,0,0,1,4.5.552L12.292,26.6,28.536,1.463A3.2,3.2,0,0,1,32.971.52l.214.14a3.2,3.2,0,0,1,.938,4.413L15.332,34.157A3.2,3.2,0,0,1,10.9,35.1Z" transform="translate(20.812)" fill="url(#linear-gradient)"/>
  </g>
</svg>
