<?xml version="1.0" encoding="UTF-8"?>
<svg width="18px" height="27px" viewBox="0 0 18 27" version="1.1" xmlns="http://www.w3.org/2000/svg" xmlns:xlink="http://www.w3.org/1999/xlink">
    <g id="Page-1" stroke="none" stroke-width="1" fill="none" fill-rule="evenodd">
        <path d="M9.00322339,0 C11.423058,0 13.7327296,1.01152599 15.369603,2.78558142 C17.0718102,4.58658344 18.0140667,6.97461573 18.0003663,9.45002762 C18.0003663,15.5970859 16.3989652,19.9646233 13.8404012,22.8496068 C12.7484422,24.1359399 11.3580888,25.1324892 9.7623643,25.7632671 L9.4173138,25.8928076 L8.79581366,26.0602777 L5.68562294,22.7865272 L7.05348674,22.1255748 C7.46887587,21.8756966 7.84789703,21.5698361 8.182592,21.2137412 C8.73135567,20.6390005 9.20387179,19.9988356 9.59027399,19.3092452 L9.77625325,18.9604053 L9.89222339,18.718 L9.61484391,18.7686299 L9.21263915,18.8266216 L8.80500229,18.8700947 L8.39116318,18.8990239 C6.04227431,18.9081366 3.81145934,17.8702206 2.30244782,16.0638946 C0.847328142,14.2877398 0.0380179138,12.0743814 0,9.79485682 L0.000229397991,9.45247826 C-0.0119211193,6.97345923 0.932617915,4.58528673 2.63275278,2.78996222 C4.27371715,1.01152599 6.58338878,0 9.00322339,0 Z M9.00022339,2.279 L8.77430034,2.28946246 C5.11640063,2.51348577 2.24788854,5.53403901 2.21236279,9.22051362 L2.21408341,9.46185811 C2.17016114,11.3176547 2.7811517,13.1296496 3.93224909,14.570638 C5.03601391,15.8860825 6.67090257,16.6380503 8.37842319,16.6202467 C9.24229022,16.5946647 10.1005693,16.4772239 10.9168906,16.2772844 L11.3213864,16.1704831 L12.8337347,15.6170162 L13.120241,16.1900289 L12.7638414,17.5193893 C12.2985303,19.7670315 11.0666098,21.7754176 9.28980889,23.2071622 L9.22922339,23.254 L9.41322339,23.447 L9.69659968,23.3163266 C10.5621863,22.8931124 11.338386,22.3023672 11.9848778,21.571266 L12.1955157,21.3224045 C13.2813698,20.0705534 14.1132053,18.6193355 14.6432777,17.0537377 C15.449404,14.6040199 15.8365128,12.0358674 15.7883641,9.43616652 C15.8778653,5.66434136 12.9637204,2.51730983 9.22627708,2.28940325 L9.00022339,2.279 Z" id="icn_top_tab" fill="currentcolor" fill-rule="nonzero"></path>
    </g>
</svg>